<?xml version="1.0" encoding="utf-8"?>
<!-- Generator: Adobe Illustrator 25.2.3, SVG Export Plug-In . SVG Version: 6.00 Build 0)  -->
<svg version="1.1" id="Capa_1" xmlns="http://www.w3.org/2000/svg" xmlns:xlink="http://www.w3.org/1999/xlink" x="0px" y="0px"
	 viewBox="0 0 252.5 101" style="enable-background:new 0 0 252.5 101;" xml:space="preserve">
<style type="text/css">
	.st0{fill:#E80000;}
</style>
<g>
	<path class="st0" d="M106.8,81.3c-1.9,0.5-2.5,1.2-2.7,2.8c-0.4,3.5,0.2,6.8,0.3,10.5c0,0.9,0,3.8,2,2.8c1.4-0.7,0.3-3.2,0.2-4.2
		c-0.1-1.5,0.3-3.2-0.1-4.5c0.9,0.7,3.2,0.7,4.2,0c0.9-0.7,1.3-4-0.3-6.2C109.4,81.2,108.6,80.9,106.8,81.3z M109.6,86.4
		c-0.2,1.1-1.2,2-2.3,0.9c-0.8-0.6-1.4-2.4-1.3-3.3c0.2-1.1,2-1.6,2.9-0.8C109.5,83.8,109.7,85.7,109.6,86.4z"/>
	<path class="st0" d="M53.9,86.7c-1.3-0.8,2.7-1.1,2.7-4.3c0-1.1-0.5-5.2-1.7-6c-2.1-1.5-7.2-2.2-7.4,2.4c-0.2,4.7-0.1,7.9-0.9,12.8
		c-0.2,1.1,1.2,4.8,2.6,2.9c1.2-1.6,0.3-2.6,0.5-4.5c0.2-1.5,0.1-3.1,0.1-3.2c0.1-0.3,1.1,0.1,1.8,0.9c1.5,1.7,3.3,4.9,5.2,5.4
		c1,0.3,1.5-0.9,1.3-1.7C57.9,90.1,54.9,87.3,53.9,86.7z M50.7,84.6c-1-0.1-0.9-2-0.7-2.7c0.4-1.2-0.1-2.7,0.8-3.4
		c0.3-0.4,1.3-0.9,1.8-0.9c2.1,0.1,3.7,3.2,2.7,5C54.3,84.3,52.6,84.7,50.7,84.6z"/>
	<path class="st0" d="M203,80.7c-0.6-0.1-1.2,0-1.7,0.3c-0.2,0.1-0.4,0.3-0.6,0.4l-0.1,0.1v-0.3l0.1-1.3c0-0.5-0.4-0.9-0.8-0.9
		c-0.3,0-0.5,0.1-0.7,0.3c-0.3,0.1-0.4,0.4-0.5,0.8l-0.1,1.4l0.1,2.5l0.1,2.1c-0.4,2.2-0.8,4.7-0.8,6.1v0.4v0.1v0.1v0.1
		c0.1,0.5,0.5,0.9,1,0.8h0.2c0.4-0.1,0.8-0.4,0.8-0.9v-0.4c0-0.6,0.2-1.7,0.3-2.7l0.3-2.1l0.1-1.5V86l0,0c0.2-0.8,0.4-2,0.7-2.5
		c0.1-0.2,0.3-0.6,0.7-0.8l0.4-0.1c0.6,0.1,1.2,0.8,1.5,2.1c0.1,0.5,0.6,0.9,1,0.8l0.3-0.1c0.3,0,0.4-0.2,0.6-0.4
		c0.1-0.2,0.2-0.4,0.2-0.7C205.8,82.4,204.6,81,203,80.7z"/>
	<path class="st0" d="M72.2,78.3c-2.3,0.8-3,1.6-3.1,3.7c-0.3,4.4,0.6,8.4,0.9,12.9c0.1,1.1,0.3,4.6,2.7,3.3c1.6-0.9,0.1-4-0.1-5.2
		c-0.3-1.9,0.1-3.9-0.4-5.6c1.2,0.8,4,0.6,5.1-0.3c1.1-0.9,1.3-5.1-0.8-7.6C75.3,78,74.3,77.6,72.2,78.3z M76,84.4
		c-0.2,1.5-1.3,2.5-2.8,1.3c-0.9-0.8-1.9-2.9-1.7-4c0.1-1.5,2.3-2.1,3.5-1.1C75.7,81.2,76.1,83.6,76,84.4z"/>
	<path class="st0" d="M93.1,87.7c-0.7,0.3-1.6-0.1-2.1-0.9c-0.1-0.2-0.2-0.4-0.3-0.7c0-0.5-0.2-1-0.6-1.4c-0.3-0.9-0.6-1.9-0.9-3
		L89,80.6c0-0.2-0.1-0.4-0.1-0.6c0.2-0.3,0.3-0.7,0.3-1.1l0,0c0-1-0.7-1.8-1.5-1.8h-0.1c-0.2,0-0.4,0-0.6,0c-0.1,0-0.1,0-0.1,0
		c-0.8,0.1-1.6,0.2-2.5,0.8c-0.4,0.3-2,1.5-2.6,2.8c-0.1,0.3-0.1,0.5-0.1,0.8c0,0.1,0,0.1,0,0.1c-0.3,0.5-0.4,0.9-0.5,1.5l-0.3,0.8
		l-0.1,0.3c-0.3,0.7-0.6,1.5-0.8,2.5c-0.4,2.8,0.6,5.2,2.7,6.1c1.1,0.5,3.7,1.1,5.3-0.3c0.8-0.6,1.2-1.4,1.5-2.1
		c1.3,1.2,3,1.6,4.5,1c0.8-0.3,1.2-1.4,0.9-2.3C94.7,87.9,93.9,87.4,93.1,87.7z M87.3,87.4c-0.3,1-0.4,1.6-0.8,1.9
		c-0.4,0.4-1.8,0.3-2.7-0.1c-0.5-0.3-0.8-0.8-0.8-1.6c0-0.2,0-0.4,0.1-0.6c0.1-0.4,0.3-0.8,0.4-1.3l0.1-0.3l0.4-1.1
		c0.1-0.4,0.3-1,0.4-1.1c0.3-0.3,0.4-0.7,0.4-1.1c0.3-0.3,0.7-0.7,1.1-0.9H86c0,0.1,0.1,0.1,0.1,0.2l0.3,1.6
		c0.3,1.3,0.7,2.5,1.1,3.6C87.4,86.7,87.3,87.1,87.3,87.4z"/>
	<path class="st0" d="M194.8,89.7c-0.7,0.3-1.6-0.1-2.1-0.9c-0.1-0.2-0.2-0.4-0.3-0.6c0-0.5-0.2-1-0.6-1.4c-0.3-0.9-0.6-1.9-0.9-3
		l-0.2-1.1c0-0.2-0.1-0.4-0.1-0.6c0.2-0.3,0.3-0.7,0.3-1.1l0,0c0-1-0.7-1.8-1.5-1.8h0c-0.2,0-0.4,0-0.6,0c-0.1,0-0.1,0-0.1,0
		c-0.8,0.1-1.6,0.2-2.5,0.8c-0.4,0.3-2,1.5-2.6,2.8c-0.1,0.3-0.1,0.5-0.1,0.8c0,0.1,0,0.1,0,0.1c-0.3,0.5-0.4,0.9-0.5,1.4l-0.3,0.8
		l-0.1,0.3c-0.3,0.7-0.6,1.5-0.8,2.5c-0.4,2.8,0.6,5.2,2.7,6.1c1.1,0.5,3.7,1.1,5.3-0.3c0.8-0.6,1.2-1.4,1.5-2.1
		c1.3,1.2,3,1.7,4.5,1c0.8-0.3,1.2-1.4,0.9-2.3C196.4,89.9,195.5,89.4,194.8,89.7z M188.9,89.4c-0.3,1-0.4,1.6-0.8,1.9
		c-0.4,0.4-1.8,0.3-2.7-0.1c-0.5-0.3-0.8-0.8-0.8-1.6c0-0.2,0-0.4,0.1-0.6c0.1-0.4,0.3-0.8,0.4-1.3l0.1-0.3l0.4-1.1
		c0.1-0.4,0.3-1,0.4-1.2c0.3-0.3,0.4-0.8,0.4-1.1c0.3-0.3,0.7-0.6,1.1-0.9c0,0,0,0,0.1,0c0,0.1,0,0.1,0,0.2l0.3,1.6
		c0.3,1.3,0.7,2.5,1.1,3.6C189.1,88.8,189,89.1,188.9,89.4z"/>
	<path class="st0" d="M63.2,81.3c0-0.1-0.1-0.2-0.1-0.3c-0.3-0.5-1-0.6-1.5-0.3c-1.2,0.9-2.7,2.8-2.8,4.9c-0.1,1.1,0.2,2.2,0.9,3
		c1.6,1.8,4.5,2,6.4,0.5c0.9-0.7,1.3-1.7,1.3-2.8c0-0.9-0.3-1.8-0.9-2.7C65.7,82.4,64.5,81.6,63.2,81.3z M64.7,87.4
		c-0.9,0.8-2.7,0.6-3.5-0.3c-0.3-0.3-0.4-0.6-0.4-1.1c0-0.1,0-0.1,0-0.3c0.1-0.8,0.4-1.5,0.9-2.1c0.1,0,0.1,0,0.2-0.1
		c1.1-0.6,2.2,0.4,2.8,1.2C64.8,85,65.7,86.5,64.7,87.4z"/>
	<path class="st0" d="M155.8,77.6c0.4,0,0.8-0.2,1.2-0.4c0.4-0.3,0.7-0.6,0.9-1s0.2-0.8-0.1-1.1c-0.2-0.4-0.6-0.6-0.9-0.5
		c-0.3,0-0.5,0.1-0.7,0.2c-0.3,0.1-0.4,0.3-0.6,0.4c-0.4,0.4-0.8,1.1-0.6,1.7C155,77.4,155.4,77.6,155.8,77.6z"/>
	<path class="st0" d="M166.8,82.6c-2-1.4-1.9,1.4-1.9,2.5c-0.1,1.4-0.4,7.1-2.3,7.1c-2.7,0-1.3-3-1.6-4c0.4-1.1,1.4-3.6-0.3-4.2
		c-1.8-0.6-1.5,2.4-1.5,3.6c0,1.4,0,4,0.8,5.1c1.3,1.8,3.9-0.4,3.4,2.4c0.9-0.2,2,0,2.8-0.1c-1.1-2.2,0.8-5.8,1-8.2
		C167.4,85.9,167.8,83.3,166.8,82.6z"/>
	<path class="st0" d="M180.2,86.5L180.2,86.5c-0.3,0-5.8,0.1-6.6,0.8l-0.1,0.1c-0.7,0.7-0.1,1.5-0.1,1.5l0,0c2.1,0,2.7,0.2,2.8,0.3
		h0.1l0,0c-0.3,1.5-0.7,1.9-0.9,2.1h-0.3h-0.6l-1.1,0.3c-1.5,0.5-2.2-1.3-2.3-1.3c-0.3-2,0.4-3.5,0.4-3.5c0-0.2,0.2-1.1,1.7-3l0.9-1
		c0.6-0.6,0.9-0.6,1.3-0.7c0.1,0,0.3-0.1,0.4-0.2l0.1-0.1l0.1-0.1c0.4-0.4,0.4-0.8,0.4-0.8c0.1-0.6-0.3-0.7-0.8-0.8l-0.2-0.1
		c-0.3-0.1-0.8,0.1-1.3,0.3c-0.4,0-1.1,0.5-1.8,1.2c-0.6,0.6-2.8,2.9-3.1,6.4c-0.3,3.8,0.4,4.2,1,4.7l0.3,0.3
		c0.7,0.6,3.1,0.6,4.9,0.2l0.5-0.1c1.6-0.4,2-1.6,2.3-2.1l0.1-0.3c0.1-0.2,0.2-0.8,0.2-1.8v-0.4h0.1l0.5-0.1l0.6-0.3l0.1-0.1
		c0.4-0.5,0.6-0.9,0.6-1.2v-0.1C180.4,86.6,180.2,86.5,180.2,86.5z"/>
	<path class="st0" d="M173.4,89L173.4,89L173.4,89z"/>
	<path class="st0" d="M126.9,84c-0.5-0.1-0.9,0-1.4,0.2c-0.2,0.1-0.4,0.2-0.5,0.3l-0.1,0.1v-0.2l0.1-1.1c0-0.4-0.3-0.7-0.6-0.8
		c-0.2-0.1-0.4,0-0.6,0.2c-0.3,0.1-0.4,0.3-0.4,0.6l-0.1,1.1v2v1.7c-0.4,1.8-0.8,3.7-0.8,4.9v0.4v0.1v0.1v0.1c0,0.4,0.4,0.7,0.8,0.7
		h0.1c0.4,0,0.7-0.3,0.7-0.7v-0.3c0-0.5,0.2-1.4,0.4-2.1l0.4-1.7l0.1-1.2v-0.1l0,0c0.2-0.7,0.4-1.6,0.7-2c0.1-0.1,0.3-0.4,0.6-0.6
		h0.3c0.4,0.1,0.9,0.7,1.1,1.8c0.1,0.4,0.4,0.7,0.8,0.7l0.2-0.1c0.2,0,0.4-0.1,0.5-0.3c0.1-0.1,0.2-0.3,0.2-0.6
		C128.9,85.5,128.1,84.3,126.9,84z"/>
	<path class="st0" d="M157.2,84.5c0.4-0.9,0.4-3.5-0.4-4.3c-0.6-0.5-1.6-0.3-2,0.2s-0.4,1.7-0.4,2.3c-0.1,2,0.4,3.9,0.8,5.9
		c0.3,2.1,0.3,4.5,0.2,6.6c-0.1,1.3-1.1,2.8-2.6,2.7c-1.8-0.2-1.6-3-3.1-3.9c-4.1,2.5,0.4,6.6,3.7,6.5c2-0.1,3.2-1.5,3.8-3.3
		c0.6-2,1.1-3.9,0.9-6.1C158,89.2,157.7,86.4,157.2,84.5z"/>
	<path class="st0" d="M119.8,91.8c-0.4,0.2-1.1-0.1-1.3-0.7c-0.1-0.1-0.1-0.3-0.2-0.4c0-0.3-0.1-0.6-0.3-0.9
		c-0.2-0.6-0.3-1.2-0.5-1.9l-0.1-0.8c0-0.1,0-0.3-0.1-0.4c0.1-0.2,0.3-0.4,0.3-0.7c0.1-0.6-0.4-1.2-0.9-1.2h-0.1c-0.1,0-0.3,0-0.3,0
		h-0.1c-0.5,0-1,0.1-1.6,0.4c-0.3,0.2-1.3,0.9-1.8,1.7c-0.1,0.1-0.1,0.3-0.1,0.5v0.1c-0.1,0.3-0.3,0.6-0.4,0.9l-0.2,0.5l-0.1,0.2
		c-0.2,0.4-0.4,0.9-0.6,1.5c-0.3,1.8,0.3,3.3,1.5,4c0.7,0.4,2.3,0.8,3.4,0c0.5-0.4,0.8-0.8,1-1.3c0.8,0.8,1.9,1.1,2.8,0.8
		c0.5-0.2,0.8-0.8,0.6-1.5C120.9,91.9,120.3,91.6,119.8,91.8z M116.1,91.4c-0.2,0.6-0.3,1-0.6,1.1c-0.3,0.3-1.1,0.1-1.7-0.1
		c-0.3-0.2-0.5-0.5-0.4-1c0-0.1,0-0.3,0.1-0.4c0.1-0.3,0.2-0.5,0.3-0.8l0.1-0.2l0.3-0.7c0.1-0.3,0.3-0.6,0.3-0.8
		c0.2-0.2,0.3-0.4,0.3-0.7c0.2-0.2,0.4-0.4,0.8-0.6l0,0c0,0.1,0,0.1,0,0.1l0.1,1.1c0.2,0.9,0.4,1.6,0.6,2.3
		C116.2,91,116.2,91.2,116.1,91.4z"/>
	<path class="st0" d="M139.9,92.2c-0.6,0.2-1.3-0.2-1.6-0.9c-0.1-0.2-0.2-0.4-0.3-0.6c0-0.4-0.1-0.9-0.4-1.1
		c-0.3-0.7-0.4-1.5-0.6-2.4l-0.1-0.9c0-0.2-0.1-0.3-0.1-0.5c0.2-0.3,0.3-0.6,0.3-0.9c0.1-0.8-0.4-1.5-1.1-1.5h-0.1
		c-0.1,0-0.3,0-0.4,0h-0.1c-0.6,0-1.3,0.1-2,0.5c-0.4,0.3-1.7,1.1-2.2,2.1c-0.1,0.2-0.1,0.4-0.1,0.6c0,0.1,0,0.1,0,0.1
		c-0.2,0.4-0.4,0.8-0.5,1.1l-0.3,0.6l-0.1,0.3c-0.3,0.5-0.6,1.1-0.7,1.9c-0.4,2.3,0.3,4.2,1.9,5c0.9,0.4,2.9,1,4.3,0
		c0.6-0.4,1-1.1,1.3-1.7c1,1,2.3,1.5,3.6,0.9c0.6-0.3,1-1.1,0.8-1.8C141.2,92.4,140.5,92,139.9,92.2z M135.2,91.7
		c-0.3,0.8-0.4,1.3-0.7,1.5c-0.4,0.3-1.4,0.2-2.1-0.2c-0.4-0.2-0.6-0.6-0.6-1.3c0-0.1,0-0.3,0.1-0.5c0.1-0.3,0.2-0.6,0.4-1l0.1-0.3
		l0.4-0.9c0.1-0.3,0.3-0.8,0.4-0.9c0.2-0.3,0.3-0.6,0.4-0.9c0.3-0.3,0.6-0.5,0.9-0.8c0,0,0,0,0.1,0c0,0.1,0,0.1,0,0.2l0.2,1.3
		c0.2,1.1,0.4,2.1,0.8,3C135.3,91.2,135.2,91.5,135.2,91.7z"/>
	<path class="st0" d="M44.7,33.5L44.7,33.5c-1,0-23.2,0.1-26.4,3l-0.5,0.4c-1,0.8-1.1,2.5-0.8,3.9c0.5,3.3,1.6,2.3,5.6,3
		c1.4,0.3,2.5,0.4,3.3,0.6c2.7,0.4,2.8-0.1,2.3,2.2c-0.6,2.9-1.4,4.7-2,5.9c-1.3,2.3-3,1.8-5.5,2.1c-3.1,0.4-6.4,1.6-9-0.6
		c-2.1-1.8-3.2-4.7-3.3-4.9c-1.1-9,1.8-15.5,1.8-15.5c0.1-0.9,0.8-4.6,7.1-13.1c0,0,1.3-1.5,2.3-2.8c1.1-1.3,2.1-2.5,3.7-3.5
		c1.1-0.7,2-0.9,2.6-1s1.1-0.3,1.6-0.7l0.4-0.4l0.2-0.1c1.8-1.6,1.5-3.2,1.5-3.4c0.5-2.4-1.3-3.2-3.3-3.7l-0.7-0.2
		c-1-0.4-3.3,0.4-5,1.2C19,6,16.2,7.9,13.3,11C10.6,13.6,1.7,23.4,0.4,38.8c-1.5,16.4,1.1,18.6,3.7,20.7l1.2,1.1
		c2.7,2.8,12.2,2.8,19.4,1.3l1.9-0.4c6.4-1.6,8.3-6.8,9.3-9.2l0.6-1.3c0.4-0.7,0.8-2.9,0.9-6.2c0.1-2.1-0.6-2.3,1.4-2.9
		c1.7-0.6,4-1.6,4.9-2.7c1.3-1.6,1.8-2.6,1.8-3.8V35C45.3,33.9,44.7,33.5,44.7,33.5z"/>
	<path class="st0" d="M102.4,25.1v-0.6c0-0.9,0-4.2-1.3-5.1c-1.2-0.9-5.6-0.3-7.9,0.1c-0.9,0.4-2,1-2.3,1.9
		c-0.1,0.2,0.3,1.6,1.3,5.7c2.7,10.2-2,31.1-2.1,31.1c0.1,0.2,1.5,2.8,2.3,4.3c0.1,0.1,3.3,3.4,5.8,2.8h1.1c0.6-0.1,1.1-0.5,1.5-1.1
		c2-3.4,1.3-10.8,1.5-14.9C102.7,39,102.4,26.5,102.4,25.1z"/>
	<path class="st0" d="M83.5,30.9c0.7-0.9,0.9-2.1,0.8-3.4c-1.1-10-6.2-17.3-12.9-18.6c-2.7-0.6-5.2,0-7.7,1.5c-0.9,0.5-2,1.2-2.8,2
		l-0.4,0.2v-1.1l0.4-6.4c0.1-2.4-1.5-4.4-3.6-4.6c-1.1-0.1-2.2,0.3-3.2,1.1c-1.2,0.7-2,2-2.2,3.5l-0.4,6.8l0.3,11.9l0.3,10.4
		c-2.2,10.7-3.8,22.7-3.9,29.9v2.3v0.1c2,3.3,4.9,3.3,9,0.2V66c0.1-3.2,1-8.4,1.8-13l1.6-10.5l0.4-7.4v-0.4l0,0
		c0.8-4.1,2.1-9.5,3.4-12.2c0.4-0.8,1.5-2.9,3.1-4l1.6-0.1c2.5,0.5,5.4,4,6.2,10.7c0.3,2.5,2.3,4.2,4.5,3.9c0,0,1-0.3,1.1-0.3
		C81.9,32.5,82.9,31.9,83.5,30.9z"/>
	<path class="st0" d="M98.1,11.7c0.8,0.1,1.6-0.5,1.9-1.3c0.7-1.7,0.9-2.3,0.9-4.3c0-0.1,0-0.2,0-0.3c0-1.1-0.3-1.6-0.9-1.9
		l-1.7-0.6c0,0-0.5-0.1-0.6-0.2l-1.2-0.3c-1,0.2-1.7,0.8-2.3,1.8c0,0-0.1,0.1-0.2,0.1c-0.6,0.4-1.1,1.1-1.1,1.9l0.2,1
		C94,9.5,94.9,11.5,98.1,11.7z"/>
	<path class="st0" d="M165.6,19.3c1.1,0.1,2.3-0.7,2.7-1.9c0.9-2.4,1.3-3.3,1.3-6.1c0-0.1,0-0.3,0-0.4c0-1.6-0.4-2.3-1.4-2.7
		l-2.4-0.9c0,0-0.7-0.2-0.9-0.3l-1.6-0.3c-1.4,0.3-2.4,1-3.2,2.6c0,0-0.2,0.1-0.3,0.1c-0.9,0.5-1.5,1.6-1.5,2.7l0.3,1.5
		C159.7,16.2,161,18.9,165.6,19.3z"/>
	<path class="st0" d="M192.4,8.5c0,0-0.1,0.1-0.3,0.1L190.3,9c-2,0.7-3.5,1.9-4.7,3.5l-0.2,0.3l-0.2-0.3c-0.9-1.3-2.5-1.6-3.9-1
		l-0.4,0.3h-0.1c-0.6-0.1-1.1,0.1-1.6,0.3c-1.2,0.6-2,1.9-2,3.3l0.3,1.6c3.2,8.3,3.9,17.7,4.4,26.5l-0.1,1.5l-0.4,6.6
		c-0.1,7.3,0.6,12.9,2.3,17.6c3.5,3.3,6.7,3.4,9.4,0.2L193,69c-1.5-6.9-1.8-14.3-2.1-22.1l-0.2-3.7l0.3-3.9l0.6-7.3v-5.2v-3.7
		c0.1-3.8,0.5-6.4,2.3-7.5c3.3,0.2,7.9,3.9,8.9,7.2c1.3,4.4,0.1,11.9-0.8,18.1l-0.8,5.4l-0.8,5.4c-0.8,5.8-1.6,11.8-1.5,17.7
		c3,3.3,5.9,3.4,9,0.2c-0.3-4.3,0.3-9,0.9-13.6c0.5-3.8,1-7.6,1.6-11.4l0.4-2.8c1.1-7,2.5-15.7,0.6-22
		C209.2,12.8,199.8,5.8,192.4,8.5z"/>
	<path class="st0" d="M153.9,46c-0.6-3.2-2.7-5.9-5.9-7.8c-1.8-1.1-3.7-1.8-5.6-2.3c-3.9-1-7.8-1.1-11.3-1.1c0,0-5.1-0.2-5.2-0.2
		c-1.3-0.1-2.5-0.8-3.4-2c-1.6-2.1-2.1-5.2-1.3-8.2c0.8-2.8,4.7-6.9,7.4-8.3c1.8-0.3,4,0.1,6.4,0.6c2,0.4,4.2,0.8,6.3,0.8
		c0.7,0,1.4-0.2,2.1-0.5c2.1-0.2,3.8-1.8,3.8-3.9c0-1-0.4-2-1.3-2.8c-0.8-0.8-1.8-1.1-3-1.2c-1.4,0-3-0.3-4.8-0.6
		c-3.7-0.7-8.3-1.6-12.9,0.4l-1.9,0.7c-4.6,2.1-10.5,8-11.8,13.3c-1.3,5.2-0.3,10.6,2.7,14.5c1.5,1.9,3.3,3.3,5.4,4.2
		c3.1,1.3,6.5,1.1,9.8,1.2c4.5,0.1,8.8,0.1,12.4,2.2c1.6,0.9,2,1.8,2.1,2.5c0.4,2.1-1.2,5.7-4.4,9.7c-3.5,4.3-6.4,5.2-11.1,5.4
		c-2.5,0.1-4.3-0.1-5.9-0.9c-2.7-1.4-8.8-8.7-11.7-8.1l-1.3,0.1c-1.3,0.3-2.3,0.9-2.9,1.8c-0.8,1.1-0.4,2.8,0.1,4
		c2.1,4.6,10.4,9.1,10.4,9.1c3.3,1.8,6.7,2,9.5,1.9h2.5c7.5-0.2,13.3-1.7,18.9-8.6C152.8,55.9,154.8,50.5,153.9,46z"/>
	<path class="st0" d="M170.8,28.8c0-1.2-0.4-2.4-1.2-3.2c-0.8-0.9-1.8-1.3-2.9-1.3l-1.6,0.4h-0.3c-2.2,0-4,2-4.1,4.5l-0.1,18.7
		l-0.4,5.7c-0.6,5-1.2,10.5,0.5,15.2c3.2,2.8,6.5,2.8,9.8,0.3c0.9-2.5,1.5-5.9,1.5-9c0.1-3.4-0.4-6.4-1.6-8.7c0,0,0.3-3.6,0.3-3.7
		C170.7,47.6,170.8,28.8,170.8,28.8z"/>
	<path class="st0" d="M249.3,30.3c-3-5.2-7.9-9.3-13.3-10.4c-0.1-0.5-0.3-0.9-0.6-1.4c-1.4-2.2-4-2.8-6-1.3
		c-5.1,3.9-11.1,12.2-12.1,21.3c-0.6,5.2,0.7,9.8,3.5,13.4c6.5,8,18.4,9.3,26.1,2.7c3.6-3.1,5.5-7.4,5.6-12.3
		C252.7,38.5,251.6,34.3,249.3,30.3z M241.7,47c-4,3.4-11,2.7-14.5-1.5c-1-1.3-1.5-2.8-1.5-4.7c0-0.3,0-0.7,0.1-1.1
		c0.3-2.8,1.6-5.7,3.2-8.3c0.9-1.5,2.3-2.1,4.2-2.3c3.6-0.2,7.1,3.3,8.7,6.3C242.4,36.2,246.2,43.2,241.7,47z"/>
</g>
</svg>
